# xmcd
#
# Track frame offsets: 
#        150
#        12002
#        25879
#        39777
#        54800
#        68484
#        82969
#        97633
#        110201
#        123455
#        135876
#        148141
#        162986
#        177905
#        193130
#        205538
#        220949
#        233111
#        247539
#        260962
#
# Disc length: 3653 seconds
#
# Revision: 1
# Processed by: cddbd v1.5.2PL0 Copyright (c) Steve Scherf et al.
# Submitted via: ExactAudioCopy v0.95a5
#
DISCID=000e4314
DTITLE=Константин Сокольский - Кумиры ХХ века
DYEAR=2000
DGENRE=Retro
TTITLE0=Фокстрот 'Нашей молодости дни'
TTITLE1=Танго 'Снилось мне'
TTITLE2=Танго 'До встречи с Вами'
TTITLE3=Фокстрот 'Когда друзья встречаются'
TTITLE4=Танго 'Две слезинки'
TTITLE5=Фокстрот 'Любовь Маруси'
TTITLE6=Танго 'Мурка'
TTITLE7=Фокстрот 'Чайник'
TTITLE8=Танго 'Стёпкин чубчик'
TTITLE9=Фокстрот 'В пожарной команде'
TTITLE10=Марш 'Песня моряка'
TTITLE11=По диким степям Забайкалья
TTITLE12=Танго 'Песня балалайки'
TTITLE13=Развесёлые частушки
TTITLE14=Фокстрот 'Гармошка'
TTITLE15=Танго 'Вино любви'
TTITLE16=Лихая поличка
TTITLE17=Танго 'Гитара любви'
TTITLE18=Танго-пародия 'Волшебная ночь'
TTITLE19=Гоп со смыком
EXTD=
EXTT0=
EXTT1=
EXTT2=
EXTT3=
EXTT4=
EXTT5=
EXTT6=
EXTT7=
EXTT8=
EXTT9=
EXTT10=
EXTT11=
EXTT12=
EXTT13=
EXTT14=
EXTT15=
EXTT16=
EXTT17=
EXTT18=
EXTT19=
PLAYORDER=
